<?xml version="1.0" standalone="no"?>
<!DOCTYPE svg PUBLIC "-//W3C//DTD SVG 20010904//EN"
 "http://www.w3.org/TR/2001/REC-SVG-20010904/DTD/svg10.dtd">
<svg version="1.0" xmlns="http://www.w3.org/2000/svg"
 width="192.000000pt" height="192.000000pt" viewBox="0 0 192.000000 192.000000"
 preserveAspectRatio="xMidYMid meet">
<metadata>
Created by potrace 1.11, written by Peter Selinger 2001-2013
</metadata>
<g transform="translate(0.000000,192.000000) scale(0.100000,-0.100000)"
fill="#000000" stroke="none">
<path d="M185 1300 l-30 -5 0 -140 0 -140 33 -3 c33 -3 34 -3 32 35 -6 89 -5
91 45 91 54 0 63 5 61 34 -1 21 -5 23 -53 21 -55 -2 -54 -3 -53 45 0 6 11 8
73 11 14 1 18 8 15 27 -3 25 -7 27 -48 28 -25 1 -59 -1 -75 -4z"/>
<path d="M828 1302 c-26 -3 -27 -4 -25 -78 2 -42 0 -77 -3 -79 -4 -2 -17 6
-31 18 -62 56 -161 137 -168 137 -3 0 -6 -58 -6 -130 0 -71 0 -130 -1 -130 -1
0 -20 35 -42 78 -85 164 -95 182 -101 182 -3 0 -39 -65 -79 -145 l-72 -145 30
0 c19 0 33 7 40 20 10 19 19 21 82 18 69 -3 106 -21 52 -26 -37 -3 -93 -48
-109 -87 -18 -42 -12 -110 12 -143 70 -93 193 -90 254 7 l29 45 0 -57 c0 -57
0 -57 30 -57 25 0 30 4 30 25 0 32 20 32 50 0 20 -22 32 -25 86 -25 52 0 65 3
73 19 9 16 22 19 81 18 59 0 71 -3 76 -19 4 -15 16 -18 67 -18 l62 0 0 63 0
62 45 1 c66 2 65 2 65 29 0 24 -3 25 -56 25 -55 0 -56 1 -54 28 l1 27 80 0 79
0 0 -118 0 -117 33 0 32 0 0 119 0 120 28 -4 c35 -4 47 4 48 33 1 18 -4 22
-31 22 l-33 0 18 36 c33 63 1 127 -70 139 -19 3 -38 11 -42 18 -12 19 13 38
42 32 18 -4 31 0 43 13 17 19 16 20 -17 36 -42 20 -50 20 -85 2 -49 -26 -61
-91 -23 -128 9 -9 35 -23 57 -30 28 -9 41 -19 43 -34 4 -31 -20 -47 -52 -34
-19 7 -33 7 -48 -1 -11 -6 -22 -9 -24 -7 -2 3 -30 54 -61 116 -32 61 -62 111
-67 112 -6 1 -41 -58 -79 -132 -38 -73 -73 -135 -77 -138 -4 -3 -37 -65 -75
-138 -60 -117 -69 -131 -84 -120 -30 24 -30 32 0 62 39 40 41 110 5 153 -22
26 -23 35 -22 148 l2 120 29 2 c16 1 32 -2 35 -6 3 -5 5 -59 4 -120 l0 -111
31 0 31 0 -1 118 0 117 35 1 c31 0 35 3 38 30 l3 29 -108 0 c-59 0 -120 -1
-135 -3z m-338 -197 c0 -2 -47 0 -73 4 -4 1 2 20 14 42 l21 42 19 -43 c10 -23
19 -43 19 -45z m740 9 c0 -9 -53 -12 -78 -5 -2 1 7 19 19 41 l23 41 18 -33 c9
-18 17 -38 18 -44z m-417 -67 l39 -32 -81 3 -81 4 0 -85 0 -86 -32 5 c-29 4
-36 0 -53 -27 -51 -82 -158 -46 -158 53 0 44 50 88 94 83 18 -3 42 -13 53 -24
20 -19 22 -19 45 -2 l24 19 -28 26 -28 26 25 0 c25 0 25 2 24 68 -1 37 0 73 2
79 4 12 55 -24 155 -110z m454 -14 c3 -8 -11 -13 -39 -15 l-43 -3 -2 -80 c-1
-44 -2 -102 -2 -130 l-1 -50 -64 125 -65 125 29 3 c18 2 31 10 35 23 6 18 14
20 78 17 43 -2 72 -8 74 -15z m-435 -90 c41 -37 11 -100 -51 -108 l-31 -4 0
63 c0 34 3 65 6 69 10 9 58 -3 76 -20z m233 -85 l15 -38 -40 0 c-22 0 -40 2
-40 5 0 2 7 23 16 45 18 45 25 43 49 -12z"/>
<path d="M1495 1300 c-2 -3 23 -48 56 -100 50 -81 59 -102 59 -142 0 -47 1
-48 30 -48 17 0 31 6 31 13 1 6 2 28 3 47 1 24 20 68 59 132 31 53 57 98 57
100 0 5 -60 1 -64 -4 -2 -1 -21 -34 -43 -72 -41 -68 -41 -68 -54 -43 -67 120
-66 120 -107 122 -13 0 -25 -2 -27 -5z"/>
</g>
</svg>
